<?xml version="1.0" standalone="no"?>
<!DOCTYPE svg PUBLIC "-//W3C//DTD SVG 20010904//EN"
 "http://www.w3.org/TR/2001/REC-SVG-20010904/DTD/svg10.dtd">
<svg version="1.0" xmlns="http://www.w3.org/2000/svg"
 width="612.000000pt" height="612.000000pt" viewBox="0 0 612.000000 612.000000"
 preserveAspectRatio="xMidYMid meet">
<metadata>
Created by potrace 1.16, written by Peter Selinger 2001-2019
</metadata>
<g transform="translate(0.000000,612.000000) scale(0.100000,-0.100000)"
fill="#000000" stroke="none">
<path d="M1139 4856 c-98 -26 -200 -110 -244 -201 -13 -27 -29 -79 -35 -115
-6 -42 -10 -545 -10 -1435 0 -1490 -1 -1456 56 -1552 55 -94 146 -159 254
-182 41 -9 511 -11 1890 -9 l1835 3 58 23 c81 33 166 114 203 194 l29 63 0
1470 0 1470 -29 62 c-30 66 -106 147 -167 178 -88 46 -28 45 -1964 44 -1417 0
-1840 -3 -1876 -13z m3329 -352 c29 -20 30 -76 2 -104 -17 -17 -33 -20 -125
-20 -100 0 -107 1 -132 26 -20 20 -24 32 -19 56 10 50 29 57 146 58 80 0 111
-4 128 -16z m421 -10 c27 -35 26 -59 -4 -89 -22 -23 -31 -25 -120 -25 -124 0
-155 15 -155 74 0 57 20 66 146 66 110 0 113 -1 133 -26z m71 -1593 l0 -1208
-22 -33 c-13 -18 -36 -43 -51 -54 l-28 -21 -1817 -3 c-1212 -2 -1829 1 -1852
7 -20 6 -51 27 -70 46 l-35 36 -5 1212 c-3 667 -4 1215 -2 1220 2 4 876 7
1943 7 l1939 0 0 -1209z"/>
<path d="M3240 3576 c-40 -13 -43 -19 -220 -486 -124 -327 -260 -684 -303
-796 -39 -101 -39 -133 1 -164 33 -26 75 -25 105 3 18 16 83 176 237 582 116
308 229 605 251 661 45 116 48 152 17 181 -32 29 -48 32 -88 19z"/>
<path d="M2474 3375 c-32 -15 -579 -444 -606 -476 -21 -24 -23 -77 -5 -100 7
-8 100 -84 207 -169 107 -85 236 -186 285 -226 50 -39 100 -76 112 -83 36 -18
72 -13 98 15 28 31 32 70 10 101 -12 17 -313 261 -474 383 l-33 26 184 146
c101 81 212 168 246 193 34 26 69 56 77 68 47 67 -26 155 -101 122z"/>
<path d="M3475 3355 c-25 -24 -31 -57 -19 -90 6 -15 145 -129 413 -339 l100
-79 -152 -121 c-84 -66 -192 -152 -240 -189 -114 -89 -127 -104 -127 -144 0
-42 38 -83 75 -83 34 0 57 13 125 69 31 25 68 55 83 66 15 11 121 94 235 185
210 167 231 191 219 242 -6 24 -203 186 -549 451 -86 66 -123 73 -163 32z"/>
</g>
</svg>
